<svg enable-background="new 0 0 24 24" height="512" viewBox="0 0 24 24" width="512" xmlns="http://www.w3.org/2000/svg"><path d="m23.25 17.5h-6.75v-4.25-9.5c0-.414-.336-.75-.75-.75s-.75.336-.75.75v8.75h-1.028l-2.353-6.665c-.387-1.098-1.429-1.835-2.593-1.835h-3.276c-.414 0-.75.336-.75.75v5.25h-2.25c-1.517 0-2.75 1.233-2.75 2.75v4.5c0 .965.785 1.75 1.75 1.75h.301c.232 1.14 1.242 2 2.449 2s2.217-.86 2.449-2h2.101c.232 1.14 1.242 2 2.449 2s2.217-.86 2.449-2h1.801 7.5c.414 0 .75-.336.75-.75s-.335-.75-.749-.75zm-16.75-12h2.526c.529 0 1.003.335 1.179.834l2.176 6.166h-4.631c-.689 0-1.25-.561-1.25-1.25v-.5zm-2 14c-.552 0-1-.449-1-1s.448-1 1-1 1 .449 1 1-.448 1-1 1zm7 0c-.552 0-1-.449-1-1s.448-1 1-1 1 .449 1 1-.448 1-1 1z"/><path d="m21.75 11v.75c0 .414-.336.75-.75.75s-.75-.336-.75-.75v-.75h-1.75c-.276 0-.5.224-.5.5v4c0 .276.224.5.5.5h5c.276 0 .5-.224.5-.5v-4c0-.276-.224-.5-.5-.5z"/><path d="m21.75 5v.75c0 .414-.336.75-.75.75s-.75-.336-.75-.75v-.75h-1.75c-.276 0-.5.224-.5.5v4c0 .276.224.5.5.5h5c.276 0 .5-.224.5-.5v-4c0-.276-.224-.5-.5-.5z"/></svg>