<svg width="24" height="24" viewBox="0 0 24 24" fill="none" xmlns="http://www.w3.org/2000/svg">
<path d="M10.9393 22.6607C11.5251 23.2464 12.4749 23.2464 13.0607 22.6607L22.6066 13.1147C23.1924 12.5289 23.1924 11.5792 22.6066 10.9934C22.0208 10.4076 21.0711 10.4076 20.4853 10.9934L12 19.4787L3.51472 10.9934C2.92893 10.4076 1.97918 10.4076 1.3934 10.9934C0.807609 11.5792 0.807609 12.5289 1.3934 13.1147L10.9393 22.6607ZM10.5 20.4V21.6H13.5V20.4H10.5Z" fill="#C4C4C4"/>
<path d="M10.9393 13.0607C11.5251 13.6465 12.4749 13.6465 13.0607 13.0607L22.6066 3.51472C23.1924 2.92893 23.1924 1.97919 22.6066 1.3934C22.0208 0.807613 21.0711 0.807613 20.4853 1.3934L12 9.87868L3.51472 1.3934C2.92893 0.807613 1.97918 0.807613 1.3934 1.3934C0.807609 1.97919 0.807609 2.92893 1.3934 3.51472L10.9393 13.0607ZM10.5 10.8V12H13.5V10.8H10.5Z" fill="#C4C4C4"/>
</svg>
