<svg width="500" height="500" viewBox="0 0 500 500" fill="none" xmlns="http://www.w3.org/2000/svg">
<path fill-rule="evenodd" clip-rule="evenodd" d="M250 500C388.071 500 500 388.071 500 250C500 111.929 388.071 0 250 0C111.929 0 0 111.929 0 250C0 388.071 111.929 500 250 500ZM66 125C57.1634 125 50 132.163 50 141V159C50 167.837 57.1635 175 66 175H434C442.837 175 450 167.837 450 159V141C450 132.163 442.837 125 434 125H66ZM66 325C57.1634 325 50 332.163 50 341V359C50 367.837 57.1635 375 66 375H434C442.837 375 450 367.837 450 359V341C450 332.163 442.837 325 434 325H66ZM50 241C50 232.163 57.1634 225 66 225H434C442.837 225 450 232.163 450 241V259C450 267.837 442.837 275 434 275H66C57.1635 275 50 267.837 50 259V241Z" fill="white"/>
</svg>
