<svg width="1387" height="862" viewBox="0 0 1387 862" fill="none" xmlns="http://www.w3.org/2000/svg">
<rect x="392" y="14" width="10" height="102" fill="white"/>
<rect x="990" width="10" height="116" fill="white"/>
<rect x="1025" y="579" width="10" height="125" fill="white"/>
<rect x="1211" y="255" width="10" height="125" fill="white"/>
<rect x="937" y="506" width="10" height="292" fill="white"/>
<rect x="852" y="730" width="10" height="132" fill="white"/>
<rect x="815" y="177" width="10" height="249" fill="white"/>
<rect y="14" width="392" height="10" fill="white"/>
<rect y="480" width="275" height="10" fill="white"/>
<rect x="1083" y="380" width="138" height="10" fill="white"/>
<rect x="1166" y="462" width="172" height="10" fill="white"/>
<rect x="1211" y="250" width="176" height="10" fill="white"/>
<rect x="1025" y="699" width="362" height="10" fill="white"/>
<rect x="942" y="793" width="408" height="10" fill="white"/>
<rect x="937" y="793" width="413" height="10" fill="white"/>
<rect x="995" width="392" height="10" fill="white"/>
</svg>
